name ./resultDataOpenSim/trcMotMarkerGrf/sub09/grf-04-06.mot
datacolumns 19
datarows 22
range 1.51600000 1.60000000
endheader

                time	     ground_force_vx	     ground_force_vy	     ground_force_vz	     ground_force_px	     ground_force_py	     ground_force_pz	   l_ground_force_vx	   l_ground_force_vy	   l_ground_force_vz	   l_ground_force_px	   l_ground_force_py	   l_ground_force_pz	     ground_torque_x	     ground_torque_y	     ground_torque_z	   l_ground_torque_x	   l_ground_torque_y	   l_ground_torque_z	
          1.51600000	        -34.32962616	        442.25575549	         -7.74100157	          1.12384263	          0.00000000	          0.09934758	          0.00000000	          0.00000000	          0.00000000	          0.00000000	          0.00000000	          0.00000000	          0.00000000	          2.26148609	          0.00000000	          0.00000000	          0.00000000	          0.00000000	
          1.52000000	        -31.72803826	        441.23444033	         -9.00175509	          1.12419514	          0.00000000	          0.09916850	          0.00000000	          0.00000000	          0.00000000	          0.00000000	          0.00000000	          0.00000000	          0.00000000	          1.98524846	          0.00000000	          0.00000000	          0.00000000	          0.00000000	
          1.52400000	        -28.90944861	        440.48993590	        -10.46562965	          1.12449603	          0.00000000	          0.09905421	          0.00000000	          0.00000000	          0.00000000	          0.00000000	          0.00000000	          0.00000000	          0.00000000	          1.68658309	          0.00000000	          0.00000000	          0.00000000	          0.00000000	
          1.52800000	        -26.25026240	        440.01451767	        -11.73719382	          1.12479367	          0.00000000	          0.09898088	          0.00000000	          0.00000000	          0.00000000	          0.00000000	          0.00000000	          0.00000000	          0.00000000	          1.43191238	          0.00000000	          0.00000000	          0.00000000	          0.00000000	
          1.53200000	        -24.07335730	        439.82150394	        -12.50741626	          1.12511755	          0.00000000	          0.09891821	          0.00000000	          0.00000000	          0.00000000	          0.00000000	          0.00000000	          0.00000000	          0.00000000	          1.27499635	          0.00000000	          0.00000000	          0.00000000	          0.00000000	
          1.53600000	        -22.56367796	        439.91144591	        -12.59558498	          1.12547451	          0.00000000	          0.09884049	          0.00000000	          0.00000000	          0.00000000	          0.00000000	          0.00000000	          0.00000000	          0.00000000	          1.24809295	          0.00000000	          0.00000000	          0.00000000	          0.00000000	
          1.54000000	        -21.73013758	        440.25597173	        -11.96257414	          1.12585837	          0.00000000	          0.09873622	          0.00000000	          0.00000000	          0.00000000	          0.00000000	          0.00000000	          0.00000000	          0.00000000	          1.35801713	          0.00000000	          0.00000000	          0.00000000	          0.00000000	
          1.54400000	        -21.41465435	        440.81047059	        -10.70172959	          1.12625459	          0.00000000	          0.09860606	          0.00000000	          0.00000000	          0.00000000	          0.00000000	          0.00000000	          0.00000000	          0.00000000	          1.58634000	          0.00000000	          0.00000000	          0.00000000	          0.00000000	
          1.54800000	        -21.33916484	        441.53170377	         -9.01787829	          1.12665018	          0.00000000	          0.09846046	          0.00000000	          0.00000000	          0.00000000	          0.00000000	          0.00000000	          0.00000000	          0.00000000	          1.89304467	          0.00000000	          0.00000000	          0.00000000	          0.00000000	
          1.55200000	        -21.17784238	        442.38630662	         -7.19705234	          1.12703287	          0.00000000	          0.09831684	          0.00000000	          0.00000000	          0.00000000	          0.00000000	          0.00000000	          0.00000000	          0.00000000	          2.22351202	          0.00000000	          0.00000000	          0.00000000	          0.00000000	
          1.55600000	        -20.63446044	        443.35976459	         -5.55908299	          1.12738296	          0.00000000	          0.09819450	          0.00000000	          0.00000000	          0.00000000	          0.00000000	          0.00000000	          0.00000000	          0.00000000	          2.51869536	          0.00000000	          0.00000000	          0.00000000	          0.00000000	
          1.56000000	        -19.50802656	        444.46378428	         -4.39321949	          1.12767883	          0.00000000	          0.09810740	          0.00000000	          0.00000000	          0.00000000	          0.00000000	          0.00000000	          0.00000000	          0.00000000	          2.72727105	          0.00000000	          0.00000000	          0.00000000	          0.00000000	
          1.56400000	        -17.73834953	        445.73250927	         -3.89493121	          1.12790326	          0.00000000	          0.09805763	          0.00000000	          0.00000000	          0.00000000	          0.00000000	          0.00000000	          0.00000000	          0.00000000	          2.81702251	          0.00000000	          0.00000000	          0.00000000	          0.00000000	
          1.56800000	        -15.42263930	        447.20985657	         -4.12374816	          1.12805054	          0.00000000	          0.09803845	          0.00000000	          0.00000000	          0.00000000	          0.00000000	          0.00000000	          0.00000000	          0.00000000	          2.78198943	          0.00000000	          0.00000000	          0.00000000	          0.00000000	
          1.57200000	        -12.79350155	        448.94174004	         -4.99129410	          1.12813931	          0.00000000	          0.09804343	          0.00000000	          0.00000000	          0.00000000	          0.00000000	          0.00000000	          0.00000000	          0.00000000	          2.64287266	          0.00000000	          0.00000000	          0.00000000	          0.00000000	
          1.57600000	        -10.15527655	        450.98017762	         -6.28568543	          1.12819906	          0.00000000	          0.09806507	          0.00000000	          0.00000000	          0.00000000	          0.00000000	          0.00000000	          0.00000000	          0.00000000	          2.44060252	          0.00000000	          0.00000000	          0.00000000	          0.00000000	
          1.58000000	         -7.79556357	        453.37917175	         -7.72855321	          1.12825727	          0.00000000	          0.09808812	          0.00000000	          0.00000000	          0.00000000	          0.00000000	          0.00000000	          0.00000000	          0.00000000	          2.22559002	          0.00000000	          0.00000000	          0.00000000	          0.00000000	
          1.58400000	         -5.90313960	        456.17225133	         -9.04112611	          1.12832397	          0.00000000	          0.09809471	          0.00000000	          0.00000000	          0.00000000	          0.00000000	          0.00000000	          0.00000000	          0.00000000	          2.04645576	          0.00000000	          0.00000000	          0.00000000	          0.00000000	
          1.58800000	         -4.51654575	        459.35910154	         -9.99432089	          1.12840067	          0.00000000	          0.09807735	          0.00000000	          0.00000000	          0.00000000	          0.00000000	          0.00000000	          0.00000000	          0.00000000	          1.94129514	          0.00000000	          0.00000000	          0.00000000	          0.00000000	
          1.59200000	         -3.51667988	        462.91960093	        -10.43951965	          1.12848870	          0.00000000	          0.09804092	          0.00000000	          0.00000000	          0.00000000	          0.00000000	          0.00000000	          0.00000000	          0.00000000	          1.93254525	          0.00000000	          0.00000000	          0.00000000	          0.00000000	
          1.59600000	         -2.66234794	        466.83482315	        -10.32757236	          1.12856448	          0.00000000	          0.09799741	          0.00000000	          0.00000000	          0.00000000	          0.00000000	          0.00000000	          0.00000000	          0.00000000	          2.02483317	          0.00000000	          0.00000000	          0.00000000	          0.00000000	
          1.60000000	         -1.65596011	        471.08482126	         -9.71658751	          1.12859090	          0.00000000	          0.09795953	          0.00000000	          0.00000000	          0.00000000	          0.00000000	          0.00000000	          0.00000000	          0.00000000	          2.20487974	          0.00000000	          0.00000000	          0.00000000	          0.00000000	
